<svg width="1360" height="212" viewBox="0 0 1360 212" fill="none" xmlns="http://www.w3.org/2000/svg">
<path d="M1115.63 41.841V80.6824C1115.63 85.492 1119.5 89.4272 1124.22 89.4272H1311.33C1313.62 89.4272 1315.76 90.3745 1317.41 91.9778L1357.42 132.714C1359.07 134.39 1359.93 136.576 1359.93 138.908V159.021C1359.93 161.353 1359 163.539 1357.42 165.215L1313.97 209.449C1312.33 211.126 1310.18 212 1307.89 212H1084.64C1083.85 212 1083.21 211.344 1083.21 210.543V180.373C1083.21 179.571 1083.85 178.916 1084.64 178.916H1318.84C1323.57 178.916 1327.43 174.98 1327.43 170.171V131.329C1327.43 126.52 1323.57 122.585 1318.84 122.585H1133.45C1131.16 122.585 1129.02 121.637 1127.37 120.034L1085.71 77.6217C1084.14 75.9457 1083.21 73.7595 1083.21 71.4275V47.3793C1083.21 45.0474 1084.14 42.8612 1085.71 41.1851L1123.65 2.5623C1125.29 0.886211 1127.44 0.0117322 1129.73 0.0117322H1358.57C1359.36 0.0117322 1360 0.667591 1360 1.4692V31.6387C1360 32.4403 1359.36 33.0962 1358.57 33.0962H1124.36C1119.5 33.0962 1115.63 37.0313 1115.63 41.841Z" fill="#EFF0DF"/>
<path d="M704.675 0H853.559C855.85 0 857.997 0.947352 859.643 2.55056L897.58 41.1734C899.226 42.8495 900.085 45.0357 900.085 47.3676V210.531C900.085 211.332 899.441 211.988 898.654 211.988H869.02C868.233 211.988 867.589 211.332 867.589 210.531V41.8292C867.589 37.0196 863.723 33.0845 858.999 33.0845H704.675C703.888 33.0845 703.244 32.4286 703.244 31.627V1.45746C703.244 0.655859 703.888 0 704.675 0Z" fill="#EFF0DF"/>
<path d="M1063.35 0.293304H894.353C893.781 0.293304 893.351 0.949163 893.351 1.75077V31.9203C893.351 32.7219 893.781 33.3778 894.353 33.3778H1063.35C1063.92 33.3778 1064.35 32.7219 1064.35 31.9203V1.75077C1064.35 0.949163 1063.92 0.293304 1063.35 0.293304Z" fill="#EFF0DF"/>
<path d="M647.789 1.25058V210.761C647.789 211.417 648.433 212 649.22 212H678.854C679.641 212 680.286 211.417 680.286 210.761V1.25058C680.286 0.594718 679.641 0.0117322 678.854 0.0117322H649.22C648.433 0.0117322 647.789 0.594718 647.789 1.25058Z" fill="#EFF0DF"/>
<path d="M381.601 34.1823V210.973C381.601 211.556 382.245 211.993 383.033 211.993H412.666C413.454 211.993 414.098 211.556 414.098 210.973V34.1823C414.098 33.5993 413.454 33.162 412.666 33.162H383.033C382.245 33.0892 381.601 33.5993 381.601 34.1823Z" fill="#EFF0DF"/>
<path d="M591.549 1.09758V177.888C591.549 178.471 592.193 178.908 592.98 178.908H622.614C623.401 178.908 624.046 178.471 624.046 177.888V1.09758C624.046 0.514594 623.401 0.0773548 622.614 0.0773548H592.98C592.193 0.0044815 591.549 0.514594 591.549 1.09758Z" fill="#EFF0DF"/>
<path d="M591.539 180.361V210.531C591.539 211.332 591.11 211.988 590.537 211.988H487.893C487.106 211.988 486.462 211.332 486.462 210.531V41.8292C486.462 37.0196 482.597 33.0845 477.872 33.0845H415.599C414.812 33.0845 414.167 32.4286 414.167 31.627V1.45746C414.167 0.655859 414.812 0 415.599 0H472.432C474.723 0 476.87 0.947352 478.517 2.55056L516.453 41.1734C518.028 42.7766 518.959 45.0357 518.959 47.3676V178.904H590.537C591.11 178.904 591.539 179.56 591.539 180.361Z" fill="#EFF0DF"/>
<path d="M357.607 1.45824V158.427C357.607 160.759 356.677 162.945 355.102 164.621L311.654 208.928C310.079 210.604 307.86 211.479 305.57 211.479H52.0378C49.7472 211.479 47.5999 210.532 45.9536 208.928L2.50526 164.621C0.930524 163.018 0 160.759 0 158.427V1.45824C0 0.656634 0.644209 0.00077527 1.43158 0.00077527H31.0652C31.8525 0.00077527 32.4968 0.656634 32.4968 1.45824V169.65C32.4968 174.459 36.362 178.394 41.0862 178.394H316.45C321.174 178.394 325.039 174.459 325.039 169.65V1.45824C325.039 0.656634 325.683 0.00077527 326.471 0.00077527H356.104C356.963 0.00077527 357.607 0.656634 357.607 1.45824Z" fill="#EFF0DF"/>
</svg>
