<svg width="220" height="41" viewBox="0 0 220 41" fill="none" xmlns="http://www.w3.org/2000/svg">
<path d="M0 20.5C0 9.17816 9.17816 0 20.5 0H199.5C210.822 0 220 9.17816 220 20.5C220 31.8218 210.822 41 199.5 41H20.5C9.17816 41 0 31.8218 0 20.5Z" fill="#FF6B00"/>
<path d="M19.7201 27.7797C18.0001 27.7797 16.6334 27.2997 15.6201 26.3397C14.6068 25.3664 14.1001 23.9664 14.1001 22.1397V18.8597C14.1001 17.0331 14.6068 15.6397 15.6201 14.6797C16.6334 13.7064 18.0001 13.2197 19.7201 13.2197C21.4401 13.2197 22.8068 13.7064 23.8201 14.6797C24.8468 15.6397 25.3601 17.0331 25.3601 18.8597V22.1397C25.3601 23.9664 24.8468 25.3664 23.8201 26.3397C22.8068 27.2997 21.4401 27.7797 19.7201 27.7797ZM19.7201 25.8397C20.8268 25.8397 21.6801 25.5197 22.2801 24.8797C22.8801 24.2264 23.1801 23.3397 23.1801 22.2197V18.7797C23.1801 17.6597 22.8801 16.7797 22.2801 16.1397C21.6801 15.4864 20.8268 15.1597 19.7201 15.1597C18.6401 15.1597 17.7934 15.4864 17.1801 16.1397C16.5668 16.7797 16.2601 17.6597 16.2601 18.7797V22.2197C16.2601 23.3397 16.5668 24.2264 17.1801 24.8797C17.7934 25.5197 18.6401 25.8397 19.7201 25.8397Z" fill="white"/>
<path d="M27.5171 27.4997V13.4997H33.0771C33.9305 13.4997 34.6905 13.6731 35.3571 14.0197C36.0371 14.3531 36.5638 14.8331 36.9371 15.4597C37.3238 16.0731 37.5171 16.8131 37.5171 17.6797V17.9397C37.5171 18.8064 37.3171 19.5531 36.9171 20.1797C36.5305 20.8064 36.0038 21.2864 35.3371 21.6197C34.6705 21.9531 33.9171 22.1197 33.0771 22.1197H29.6771V27.4997H27.5171ZM29.6771 20.1597H32.8571C33.6171 20.1597 34.2238 19.9597 34.6771 19.5597C35.1305 19.1597 35.3571 18.6131 35.3571 17.9197V17.7197C35.3571 17.0131 35.1305 16.4597 34.6771 16.0597C34.2238 15.6597 33.6171 15.4597 32.8571 15.4597H29.6771V20.1597Z" fill="white"/>
<path d="M39.1679 27.4997V13.4997H47.9879V15.4597H41.3279V19.4797H47.4279V21.4397H41.3279V25.5397H48.0879V27.4997H39.1679Z" fill="white"/>
<path d="M49.9398 27.4997V13.4997H54.0998L57.8998 26.0597H58.2198V13.4997H60.3598V27.4997H56.1998L52.3998 14.9197H52.0798V27.4997H49.9398Z" fill="white"/>
<path d="M62.8796 27.4997V13.4997H71.6996V15.4597H65.0396V19.4797H71.1396V21.4397H65.0396V25.5397H71.7996V27.4997H62.8796Z" fill="white"/>
<path d="M73.1315 27.4997V25.5797H75.0115V15.4197H73.1315V13.4997H78.7315C80.5982 13.4997 82.0248 13.9731 83.0115 14.9197C84.0115 15.8664 84.5115 17.2931 84.5115 19.1997V21.8197C84.5115 23.7264 84.0115 25.1531 83.0115 26.0997C82.0248 27.0331 80.5982 27.4997 78.7315 27.4997H73.1315ZM77.1915 25.5397H78.7515C79.9648 25.5397 80.8648 25.2331 81.4515 24.6197C82.0382 24.0064 82.3315 23.0931 82.3315 21.8797V19.1197C82.3315 17.8931 82.0382 16.9797 81.4515 16.3797C80.8648 15.7797 79.9648 15.4797 78.7515 15.4797H77.1915V25.5397Z" fill="white"/>
<path d="M95.8699 27.7797C94.8433 27.7797 93.9299 27.5931 93.1299 27.2197C92.3299 26.8464 91.7033 26.3064 91.2499 25.5997C90.8099 24.8931 90.5899 24.0531 90.5899 23.0797V22.7197H92.6899V23.0397C92.6899 23.9197 92.9766 24.6197 93.5499 25.1397C94.1366 25.6464 94.9099 25.8997 95.8699 25.8997C96.8299 25.8997 97.5766 25.6597 98.1099 25.1797C98.6433 24.6997 98.9099 24.0931 98.9099 23.3597V23.1797C98.9099 22.6597 98.7833 22.2397 98.5299 21.9197C98.2766 21.5997 97.9366 21.3664 97.5099 21.2197C97.0833 21.0597 96.6033 20.9797 96.0699 20.9797H93.5299V18.5597L98.4499 15.6597V15.3797H90.9299V13.4997H100.73V16.3397L96.0299 19.1397V19.4197H96.8899C97.5966 19.4197 98.2633 19.5531 98.8899 19.8197C99.5166 20.0864 100.023 20.4931 100.41 21.0397C100.81 21.5864 101.01 22.2797 101.01 23.1197V23.3597C101.01 24.2531 100.797 25.0331 100.37 25.6997C99.9433 26.3531 99.3433 26.8664 98.5699 27.2397C97.7966 27.5997 96.8966 27.7797 95.8699 27.7797Z" fill="white"/>
<path d="M107.677 27.4997V13.4997H109.837V25.5397H116.577V27.4997H107.677Z" fill="white"/>
<path d="M122.986 27.7797C121.266 27.7797 119.899 27.2997 118.886 26.3397C117.872 25.3664 117.366 23.9664 117.366 22.1397V18.8597C117.366 17.0331 117.872 15.6397 118.886 14.6797C119.899 13.7064 121.266 13.2197 122.986 13.2197C124.706 13.2197 126.072 13.7064 127.086 14.6797C128.112 15.6397 128.626 17.0331 128.626 18.8597V22.1397C128.626 23.9664 128.112 25.3664 127.086 26.3397C126.072 27.2997 124.706 27.7797 122.986 27.7797ZM122.986 25.8397C124.092 25.8397 124.946 25.5197 125.546 24.8797C126.146 24.2264 126.446 23.3397 126.446 22.2197V18.7797C126.446 17.6597 126.146 16.7797 125.546 16.1397C124.946 15.4864 124.092 15.1597 122.986 15.1597C121.906 15.1597 121.059 15.4864 120.446 16.1397C119.832 16.7797 119.526 17.6597 119.526 18.7797V22.2197C119.526 23.3397 119.832 24.2264 120.446 24.8797C121.059 25.5197 121.906 25.8397 122.986 25.8397Z" fill="white"/>
<path d="M135.983 27.7797C134.276 27.7797 132.923 27.2997 131.923 26.3397C130.923 25.3664 130.423 23.9664 130.423 22.1397V18.8597C130.423 17.0331 130.923 15.6397 131.923 14.6797C132.923 13.7064 134.276 13.2197 135.983 13.2197C137.663 13.2197 138.956 13.6864 139.863 14.6197C140.783 15.5531 141.243 16.8264 141.243 18.4397V18.5597H139.103V18.3797C139.103 17.4331 138.843 16.6597 138.323 16.0597C137.816 15.4597 137.036 15.1597 135.983 15.1597C134.916 15.1597 134.083 15.4864 133.483 16.1397C132.883 16.7797 132.583 17.6731 132.583 18.8197V22.1797C132.583 23.3131 132.883 24.2064 133.483 24.8597C134.083 25.5131 134.916 25.8397 135.983 25.8397C137.036 25.8397 137.816 25.5397 138.323 24.9397C138.843 24.3264 139.103 23.5531 139.103 22.6197V22.2797H141.243V22.5597C141.243 24.1731 140.783 25.4464 139.863 26.3797C138.956 27.3131 137.663 27.7797 135.983 27.7797Z" fill="white"/>
<path d="M142.058 27.4997L146.058 13.4997H149.858L153.838 27.4997H151.618L150.698 24.1997H145.218L144.298 27.4997H142.058ZM145.758 22.1997H150.158L148.118 14.8397H147.798L145.758 22.1997Z" fill="white"/>
<path d="M157.288 27.4997V15.4597H152.988V13.4997H163.748V15.4597H159.448V27.4997H157.288Z" fill="white"/>
<path d="M165.305 27.4997V13.4997H167.465V27.4997H165.305Z" fill="white"/>
<path d="M175.244 27.7797C173.524 27.7797 172.157 27.2997 171.144 26.3397C170.13 25.3664 169.624 23.9664 169.624 22.1397V18.8597C169.624 17.0331 170.13 15.6397 171.144 14.6797C172.157 13.7064 173.524 13.2197 175.244 13.2197C176.964 13.2197 178.33 13.7064 179.344 14.6797C180.37 15.6397 180.884 17.0331 180.884 18.8597V22.1397C180.884 23.9664 180.37 25.3664 179.344 26.3397C178.33 27.2997 176.964 27.7797 175.244 27.7797ZM175.244 25.8397C176.35 25.8397 177.204 25.5197 177.804 24.8797C178.404 24.2264 178.704 23.3397 178.704 22.2197V18.7797C178.704 17.6597 178.404 16.7797 177.804 16.1397C177.204 15.4864 176.35 15.1597 175.244 15.1597C174.164 15.1597 173.317 15.4864 172.704 16.1397C172.09 16.7797 171.784 17.6597 171.784 18.7797V22.2197C171.784 23.3397 172.09 24.2264 172.704 24.8797C173.317 25.5197 174.164 25.8397 175.244 25.8397Z" fill="white"/>
<path d="M183.041 27.4997V13.4997H187.201L191.001 26.0597H191.321V13.4997H193.461V27.4997H189.301L185.501 14.9197H185.181V27.4997H183.041Z" fill="white"/>
<path d="M200.74 27.7797C199.687 27.7797 198.754 27.5931 197.94 27.2197C197.127 26.8464 196.487 26.2997 196.02 25.5797C195.567 24.8464 195.34 23.9597 195.34 22.9197V22.4197H197.48V22.9197C197.48 23.9064 197.774 24.6464 198.36 25.1397C198.96 25.6331 199.754 25.8797 200.74 25.8797C201.74 25.8797 202.494 25.6731 203 25.2597C203.507 24.8331 203.76 24.2864 203.76 23.6197C203.76 23.1797 203.64 22.8197 203.4 22.5397C203.16 22.2597 202.82 22.0397 202.38 21.8797C201.94 21.7064 201.414 21.5464 200.8 21.3997L200.06 21.2197C199.167 21.0064 198.387 20.7464 197.72 20.4397C197.067 20.1197 196.56 19.6997 196.2 19.1797C195.84 18.6597 195.66 17.9931 195.66 17.1797C195.66 16.3531 195.86 15.6464 196.26 15.0597C196.674 14.4731 197.24 14.0197 197.96 13.6997C198.68 13.3797 199.527 13.2197 200.5 13.2197C201.474 13.2197 202.34 13.3864 203.1 13.7197C203.874 14.0531 204.48 14.5464 204.92 15.1997C205.36 15.8531 205.58 16.6731 205.58 17.6597V18.3797H203.44V17.6597C203.44 17.0597 203.314 16.5731 203.06 16.1997C202.82 15.8264 202.48 15.5531 202.04 15.3797C201.6 15.2064 201.087 15.1197 200.5 15.1197C199.647 15.1197 198.98 15.2997 198.5 15.6597C198.034 16.0064 197.8 16.4931 197.8 17.1197C197.8 17.5464 197.9 17.8997 198.1 18.1797C198.314 18.4464 198.62 18.6664 199.02 18.8397C199.42 19.0131 199.92 19.1664 200.52 19.2997L201.26 19.4797C202.167 19.6797 202.967 19.9397 203.66 20.2597C204.354 20.5664 204.9 20.9864 205.3 21.5197C205.7 22.0531 205.9 22.7397 205.9 23.5797C205.9 24.4197 205.687 25.1531 205.26 25.7797C204.847 26.4064 204.254 26.8997 203.48 27.2597C202.707 27.6064 201.794 27.7797 200.74 27.7797Z" fill="white"/>
</svg>
