<svg width="208" height="41" viewBox="0 0 208 41" fill="none" xmlns="http://www.w3.org/2000/svg">
<path d="M0 20.5C0 9.17816 9.17816 0 20.5 0H187.5C198.822 0 208 9.17816 208 20.5C208 31.8218 198.822 41 187.5 41H20.5C9.17817 41 0 31.8218 0 20.5Z" fill="#FF6B00"/>
<path d="M19.34 27.56C18.2333 27.56 17.28 27.36 16.48 26.96C15.6933 26.56 15.08 25.9867 14.64 25.24C14.2133 24.48 14 23.56 14 22.48V13.28H16.18V22.54C16.18 23.5267 16.4533 24.2867 17 24.82C17.5467 25.3533 18.3267 25.62 19.34 25.62C20.3533 25.62 21.1333 25.3533 21.68 24.82C22.2267 24.2867 22.5 23.5267 22.5 22.54V13.28H24.66V22.48C24.66 23.56 24.4467 24.48 24.02 25.24C23.5933 25.9867 22.98 26.56 22.18 26.96C21.38 27.36 20.4333 27.56 19.34 27.56Z" fill="white"/>
<path d="M27.0789 27.28V13.28H31.2389L35.0389 25.84H35.3589V13.28H37.4989V27.28H33.3389L29.5389 14.7H29.2189V27.28H27.0789Z" fill="white"/>
<path d="M40.0188 27.28V13.28H42.1788V27.28H40.0188Z" fill="white"/>
<path d="M49.9569 27.56C48.2369 27.56 46.8702 27.08 45.8569 26.12C44.8435 25.1467 44.3369 23.7467 44.3369 21.92V18.64C44.3369 16.8133 44.8435 15.42 45.8569 14.46C46.8702 13.4867 48.2369 13 49.9569 13C51.6769 13 53.0435 13.4867 54.0569 14.46C55.0835 15.42 55.5969 16.8133 55.5969 18.64V21.92C55.5969 23.7467 55.0835 25.1467 54.0569 26.12C53.0435 27.08 51.6769 27.56 49.9569 27.56ZM49.9569 25.62C51.0635 25.62 51.9169 25.3 52.5169 24.66C53.1169 24.0067 53.4169 23.12 53.4169 22V18.56C53.4169 17.44 53.1169 16.56 52.5169 15.92C51.9169 15.2667 51.0635 14.94 49.9569 14.94C48.8769 14.94 48.0302 15.2667 47.4169 15.92C46.8035 16.56 46.4969 17.44 46.4969 18.56V22C46.4969 23.12 46.8035 24.0067 47.4169 24.66C48.0302 25.3 48.8769 25.62 49.9569 25.62ZM50.8169 30.7C50.2435 30.7 49.7769 30.52 49.4169 30.16C49.0702 29.8133 48.8969 29.34 48.8969 28.74V27.28H51.0169V28.38C51.0169 28.78 51.2035 28.98 51.5769 28.98H52.8169V30.7H50.8169Z" fill="white"/>
<path d="M62.9939 27.56C61.8872 27.56 60.9339 27.36 60.1339 26.96C59.3472 26.56 58.7339 25.9867 58.2939 25.24C57.8672 24.48 57.6539 23.56 57.6539 22.48V13.28H59.8339V22.54C59.8339 23.5267 60.1072 24.2867 60.6539 24.82C61.2006 25.3533 61.9806 25.62 62.9939 25.62C64.0072 25.62 64.7872 25.3533 65.3339 24.82C65.8806 24.2867 66.1539 23.5267 66.1539 22.54V13.28H68.3139V22.48C68.3139 23.56 68.1006 24.48 67.6739 25.24C67.2472 25.9867 66.6339 26.56 65.8339 26.96C65.0339 27.36 64.0872 27.56 62.9939 27.56Z" fill="white"/>
<path d="M70.7328 27.28V13.28H79.5528V15.24H72.8928V19.26H78.9928V21.22H72.8928V25.32H79.6528V27.28H70.7328Z" fill="white"/>
<path d="M86.2023 27.28V13.28H95.0223V15.24H88.3623V19.26H94.4623V21.22H88.3623V25.32H95.1223V27.28H86.2023Z" fill="white"/>
<path d="M96.0542 27.28L100.354 20.22L96.1142 13.28H98.5942L101.754 18.68H102.074L105.254 13.28H107.734L103.494 20.22L107.794 27.28H105.294L102.074 21.76H101.754L98.5342 27.28H96.0542Z" fill="white"/>
<path d="M109.387 27.28V13.28H114.947C115.8 13.28 116.56 13.4533 117.227 13.8C117.907 14.1333 118.433 14.6133 118.807 15.24C119.193 15.8533 119.387 16.5933 119.387 17.46V17.72C119.387 18.5867 119.187 19.3333 118.787 19.96C118.4 20.5867 117.873 21.0667 117.207 21.4C116.54 21.7333 115.787 21.9 114.947 21.9H111.547V27.28H109.387ZM111.547 19.94H114.727C115.487 19.94 116.093 19.74 116.547 19.34C117 18.94 117.227 18.3933 117.227 17.7V17.5C117.227 16.7933 117 16.24 116.547 15.84C116.093 15.44 115.487 15.24 114.727 15.24H111.547V19.94Z" fill="white"/>
<path d="M121.037 27.28V13.28H129.857V15.24H123.198V19.26H129.298V21.22H123.198V25.32H129.958V27.28H121.037Z" fill="white"/>
<path d="M131.809 27.28V13.28H137.689C138.556 13.28 139.316 13.4333 139.969 13.74C140.636 14.0333 141.149 14.46 141.509 15.02C141.883 15.58 142.069 16.2467 142.069 17.02V17.24C142.069 18.12 141.856 18.8267 141.429 19.36C141.016 19.88 140.509 20.2467 139.909 20.46V20.78C140.416 20.8067 140.823 20.98 141.129 21.3C141.436 21.6067 141.589 22.0533 141.589 22.64V27.28H139.409V22.94C139.409 22.58 139.316 22.2933 139.129 22.08C138.943 21.8667 138.643 21.76 138.229 21.76H133.969V27.28H131.809ZM133.969 19.8H137.449C138.223 19.8 138.823 19.6067 139.249 19.22C139.676 18.82 139.889 18.28 139.889 17.6V17.44C139.889 16.76 139.676 16.2267 139.249 15.84C138.836 15.44 138.236 15.24 137.449 15.24H133.969V19.8Z" fill="white"/>
<path d="M144.046 27.28V13.28H146.206V27.28H144.046Z" fill="white"/>
<path d="M148.724 27.28V13.28H157.544V15.24H150.884V19.26H156.984V21.22H150.884V25.32H157.644V27.28H148.724Z" fill="white"/>
<path d="M159.496 27.28V13.28H163.656L167.456 25.84H167.776V13.28H169.916V27.28H165.756L161.956 14.7H161.636V27.28H159.496Z" fill="white"/>
<path d="M177.636 27.56C175.929 27.56 174.576 27.08 173.576 26.12C172.576 25.1467 172.076 23.7467 172.076 21.92V18.64C172.076 16.8133 172.576 15.42 173.576 14.46C174.576 13.4867 175.929 13 177.636 13C179.316 13 180.609 13.4667 181.516 14.4C182.436 15.3333 182.896 16.6067 182.896 18.22V18.34H180.756V18.16C180.756 17.2133 180.496 16.44 179.976 15.84C179.469 15.24 178.689 14.94 177.636 14.94C176.569 14.94 175.736 15.2667 175.136 15.92C174.536 16.56 174.236 17.4533 174.236 18.6V21.96C174.236 23.0933 174.536 23.9867 175.136 24.64C175.736 25.2933 176.569 25.62 177.636 25.62C178.689 25.62 179.469 25.32 179.976 24.72C180.496 24.1067 180.756 23.3333 180.756 22.4V22.06H182.896V22.34C182.896 23.9533 182.436 25.2267 181.516 26.16C180.609 27.0933 179.316 27.56 177.636 27.56Z" fill="white"/>
<path d="M184.888 27.28V13.28H193.708V15.24H187.048V19.26H193.148V21.22H187.048V25.32H193.808V27.28H184.888Z" fill="white"/>
</svg>
