<svg width="202" height="41" viewBox="0 0 202 41" fill="none" xmlns="http://www.w3.org/2000/svg">
<path d="M0 20.5C0 9.17816 9.17816 0 20.5 0H181.5C192.822 0 202 9.17816 202 20.5C202 31.8218 192.822 41 181.5 41H20.5C9.17816 41 0 31.8218 0 20.5Z" fill="#FF6B00"/>
<path d="M15.7 27.4997V13.4997H21.58C22.4466 13.4997 23.2066 13.6531 23.86 13.9597C24.5266 14.2531 25.04 14.6797 25.4 15.2397C25.7733 15.7997 25.96 16.4664 25.96 17.2397V17.4597C25.96 18.3397 25.7466 19.0464 25.32 19.5797C24.9066 20.0997 24.4 20.4664 23.8 20.6797V20.9997C24.3066 21.0264 24.7133 21.1997 25.02 21.5197C25.3266 21.8264 25.48 22.2731 25.48 22.8597V27.4997H23.3V23.1597C23.3 22.7997 23.2066 22.5131 23.02 22.2997C22.8333 22.0864 22.5333 21.9797 22.12 21.9797H17.86V27.4997H15.7ZM17.86 20.0197H21.34C22.1133 20.0197 22.7133 19.8264 23.14 19.4397C23.5666 19.0397 23.78 18.4997 23.78 17.8197V17.6597C23.78 16.9797 23.5666 16.4464 23.14 16.0597C22.7266 15.6597 22.1266 15.4597 21.34 15.4597H17.86V20.0197Z" fill="white"/>
<path d="M27.9367 27.4997V13.4997H36.7567V15.4597H30.0967V19.4797H36.1967V21.4397H30.0967V25.5397H36.8567V27.4997H27.9367Z" fill="white"/>
<path d="M43.5685 27.7797C42.5685 27.7797 41.6752 27.5664 40.8885 27.1397C40.1019 26.6997 39.4819 26.0597 39.0285 25.2197C38.5752 24.3797 38.3485 23.3531 38.3485 22.1397V18.8597C38.3485 17.0331 38.8485 15.6397 39.8485 14.6797C40.8485 13.7064 42.2019 13.2197 43.9085 13.2197C45.5885 13.2197 46.8819 13.6797 47.7885 14.5997C48.6952 15.5064 49.1485 16.7264 49.1485 18.2597V18.3597H47.0085V18.1997C47.0085 17.6264 46.8952 17.1131 46.6685 16.6597C46.4419 16.1931 46.1019 15.8264 45.6485 15.5597C45.1952 15.2931 44.6152 15.1597 43.9085 15.1597C42.8419 15.1597 42.0085 15.4864 41.4085 16.1397C40.8085 16.7797 40.5085 17.6731 40.5085 18.8197V22.1797C40.5085 23.3131 40.8085 24.2131 41.4085 24.8797C42.0085 25.5331 42.8485 25.8597 43.9285 25.8597C44.9952 25.8597 45.7752 25.5664 46.2685 24.9797C46.7619 24.3931 47.0085 23.6331 47.0085 22.6997V22.4397H43.2485V20.5797H49.1485V27.4997H47.1485V26.0797H46.8285C46.7085 26.3331 46.5285 26.5931 46.2885 26.8597C46.0619 27.1264 45.7285 27.3464 45.2885 27.5197C44.8619 27.6931 44.2885 27.7797 43.5685 27.7797Z" fill="white"/>
<path d="M56.7712 27.7797C55.6645 27.7797 54.7112 27.5797 53.9112 27.1797C53.1245 26.7797 52.5112 26.2064 52.0712 25.4597C51.6445 24.6997 51.4312 23.7797 51.4312 22.6997V13.4997H53.6112V22.7597C53.6112 23.7464 53.8845 24.5064 54.4312 25.0397C54.9779 25.5731 55.7579 25.8397 56.7712 25.8397C57.7845 25.8397 58.5645 25.5731 59.1112 25.0397C59.6579 24.5064 59.9312 23.7464 59.9312 22.7597V13.4997H62.0912V22.6997C62.0912 23.7797 61.8779 24.6997 61.4512 25.4597C61.0245 26.2064 60.4112 26.7797 59.6112 27.1797C58.8112 27.5797 57.8645 27.7797 56.7712 27.7797Z" fill="white"/>
<path d="M64.5101 27.4997V13.4997H66.6701V25.5397H73.4101V27.4997H64.5101Z" fill="white"/>
<path d="M73.949 27.4997L77.949 13.4997H81.749L85.729 27.4997H83.509L82.589 24.1997H77.109L76.189 27.4997H73.949ZM77.649 22.1997H82.049L80.009 14.8397H79.689L77.649 22.1997Z" fill="white"/>
<path d="M87.2257 27.4997V13.4997H93.1057C93.9724 13.4997 94.7324 13.6531 95.3857 13.9597C96.0524 14.2531 96.5657 14.6797 96.9257 15.2397C97.2991 15.7997 97.4857 16.4664 97.4857 17.2397V17.4597C97.4857 18.3397 97.2724 19.0464 96.8457 19.5797C96.4324 20.0997 95.9257 20.4664 95.3257 20.6797V20.9997C95.8324 21.0264 96.2391 21.1997 96.5457 21.5197C96.8524 21.8264 97.0057 22.2731 97.0057 22.8597V27.4997H94.8257V23.1597C94.8257 22.7997 94.7324 22.5131 94.5457 22.2997C94.3591 22.0864 94.0591 21.9797 93.6457 21.9797H89.3857V27.4997H87.2257ZM89.3857 20.0197H92.8657C93.6391 20.0197 94.2391 19.8264 94.6657 19.4397C95.0924 19.0397 95.3057 18.4997 95.3057 17.8197V17.6597C95.3057 16.9797 95.0924 16.4464 94.6657 16.0597C94.2524 15.6597 93.6524 15.4597 92.8657 15.4597H89.3857V20.0197Z" fill="white"/>
<path d="M108.92 27.7797C107.867 27.7797 106.933 27.5931 106.12 27.2197C105.307 26.8464 104.667 26.2997 104.2 25.5797C103.747 24.8464 103.52 23.9597 103.52 22.9197V22.4197H105.66V22.9197C105.66 23.9064 105.953 24.6464 106.54 25.1397C107.14 25.6331 107.933 25.8797 108.92 25.8797C109.92 25.8797 110.673 25.6731 111.18 25.2597C111.687 24.8331 111.94 24.2864 111.94 23.6197C111.94 23.1797 111.82 22.8197 111.58 22.5397C111.34 22.2597 111 22.0397 110.56 21.8797C110.12 21.7064 109.593 21.5464 108.98 21.3997L108.24 21.2197C107.347 21.0064 106.567 20.7464 105.9 20.4397C105.247 20.1197 104.74 19.6997 104.38 19.1797C104.02 18.6597 103.84 17.9931 103.84 17.1797C103.84 16.3531 104.04 15.6464 104.44 15.0597C104.853 14.4731 105.42 14.0197 106.14 13.6997C106.86 13.3797 107.707 13.2197 108.68 13.2197C109.653 13.2197 110.52 13.3864 111.28 13.7197C112.053 14.0531 112.66 14.5464 113.1 15.1997C113.54 15.8531 113.76 16.6731 113.76 17.6597V18.3797H111.62V17.6597C111.62 17.0597 111.493 16.5731 111.24 16.1997C111 15.8264 110.66 15.5531 110.22 15.3797C109.78 15.2064 109.267 15.1197 108.68 15.1197C107.827 15.1197 107.16 15.2997 106.68 15.6597C106.213 16.0064 105.98 16.4931 105.98 17.1197C105.98 17.5464 106.08 17.8997 106.28 18.1797C106.493 18.4464 106.8 18.6664 107.2 18.8397C107.6 19.0131 108.1 19.1664 108.7 19.2997L109.44 19.4797C110.347 19.6797 111.147 19.9397 111.84 20.2597C112.533 20.5664 113.08 20.9864 113.48 21.5197C113.88 22.0531 114.08 22.7397 114.08 23.5797C114.08 24.4197 113.867 25.1531 113.44 25.7797C113.027 26.4064 112.433 26.8997 111.66 27.2597C110.887 27.6064 109.973 27.7797 108.92 27.7797Z" fill="white"/>
<path d="M121.188 27.7797C120.081 27.7797 119.128 27.5797 118.328 27.1797C117.541 26.7797 116.928 26.2064 116.488 25.4597C116.061 24.6997 115.848 23.7797 115.848 22.6997V13.4997H118.028V22.7597C118.028 23.7464 118.301 24.5064 118.848 25.0397C119.394 25.5731 120.174 25.8397 121.188 25.8397C122.201 25.8397 122.981 25.5731 123.528 25.0397C124.074 24.5064 124.348 23.7464 124.348 22.7597V13.4997H126.508V22.6997C126.508 23.7797 126.294 24.6997 125.868 25.4597C125.441 26.2064 124.828 26.7797 124.028 27.1797C123.228 27.5797 122.281 27.7797 121.188 27.7797Z" fill="white"/>
<path d="M128.927 27.4997V13.4997H134.487C135.34 13.4997 136.1 13.6731 136.767 14.0197C137.447 14.3531 137.973 14.8331 138.347 15.4597C138.733 16.0731 138.927 16.8131 138.927 17.6797V17.9397C138.927 18.8064 138.727 19.5531 138.327 20.1797C137.94 20.8064 137.413 21.2864 136.747 21.6197C136.08 21.9531 135.327 22.1197 134.487 22.1197H131.087V27.4997H128.927ZM131.087 20.1597H134.267C135.027 20.1597 135.633 19.9597 136.087 19.5597C136.54 19.1597 136.767 18.6131 136.767 17.9197V17.7197C136.767 17.0131 136.54 16.4597 136.087 16.0597C135.633 15.6597 135.027 15.4597 134.267 15.4597H131.087V20.1597Z" fill="white"/>
<path d="M140.577 27.4997V13.4997H146.137C146.991 13.4997 147.751 13.6731 148.417 14.0197C149.097 14.3531 149.624 14.8331 149.997 15.4597C150.384 16.0731 150.577 16.8131 150.577 17.6797V17.9397C150.577 18.8064 150.377 19.5531 149.977 20.1797C149.591 20.8064 149.064 21.2864 148.397 21.6197C147.731 21.9531 146.977 22.1197 146.137 22.1197H142.737V27.4997H140.577ZM142.737 20.1597H145.917C146.677 20.1597 147.284 19.9597 147.737 19.5597C148.191 19.1597 148.417 18.6131 148.417 17.9197V17.7197C148.417 17.0131 148.191 16.4597 147.737 16.0597C147.284 15.6597 146.677 15.4597 145.917 15.4597H142.737V20.1597Z" fill="white"/>
<path d="M157.488 27.7797C155.768 27.7797 154.401 27.2997 153.388 26.3397C152.375 25.3664 151.868 23.9664 151.868 22.1397V18.8597C151.868 17.0331 152.375 15.6397 153.388 14.6797C154.401 13.7064 155.768 13.2197 157.488 13.2197C159.208 13.2197 160.575 13.7064 161.588 14.6797C162.615 15.6397 163.128 17.0331 163.128 18.8597V22.1397C163.128 23.9664 162.615 25.3664 161.588 26.3397C160.575 27.2997 159.208 27.7797 157.488 27.7797ZM157.488 25.8397C158.595 25.8397 159.448 25.5197 160.048 24.8797C160.648 24.2264 160.948 23.3397 160.948 22.2197V18.7797C160.948 17.6597 160.648 16.7797 160.048 16.1397C159.448 15.4864 158.595 15.1597 157.488 15.1597C156.408 15.1597 155.561 15.4864 154.948 16.1397C154.335 16.7797 154.028 17.6597 154.028 18.7797V22.2197C154.028 23.3397 154.335 24.2264 154.948 24.8797C155.561 25.5197 156.408 25.8397 157.488 25.8397Z" fill="white"/>
<path d="M165.285 27.4997V13.4997H171.165C172.032 13.4997 172.792 13.6531 173.445 13.9597C174.112 14.2531 174.625 14.6797 174.985 15.2397C175.358 15.7997 175.545 16.4664 175.545 17.2397V17.4597C175.545 18.3397 175.332 19.0464 174.905 19.5797C174.492 20.0997 173.985 20.4664 173.385 20.6797V20.9997C173.892 21.0264 174.298 21.1997 174.605 21.5197C174.912 21.8264 175.065 22.2731 175.065 22.8597V27.4997H172.885V23.1597C172.885 22.7997 172.792 22.5131 172.605 22.2997C172.418 22.0864 172.118 21.9797 171.705 21.9797H167.445V27.4997H165.285ZM167.445 20.0197H170.925C171.698 20.0197 172.298 19.8264 172.725 19.4397C173.152 19.0397 173.365 18.4997 173.365 17.8197V17.6597C173.365 16.9797 173.152 16.4464 172.725 16.0597C172.312 15.6597 171.712 15.4597 170.925 15.4597H167.445V20.0197Z" fill="white"/>
<path d="M180.647 27.4997V15.4597H176.347V13.4997H187.107V15.4597H182.807V27.4997H180.647Z" fill="white"/>
</svg>
